#N canvas 601 433 450 300 10;
#X obj 9 11 loadbang;
#X obj 11 178 readsf~ 2;
#X obj 10 74 t b b;
#X msg 308 137 start;
#X obj 11 223 *~ 0.7;
#X obj 60 223 *~ 0.7;
#X obj 11 271 dac~;
#X obj 9 40 t b b;
#X msg 354 62 \; pd dsp 1;
#X obj 308 109 delay 500;
#X obj 354 36 delay 100;
#X msg 140 129 stop;
#X obj 142 94 t b b;
#X obj 143 173 delay 15000;
#X msg 10 103 open draft1.wav;
#X connect 0 0 7 0;
#X connect 1 0 4 0;
#X connect 1 1 5 0;
#X connect 1 2 12 0;
#X connect 2 0 9 0;
#X connect 2 1 14 0;
#X connect 3 0 1 0;
#X connect 4 0 6 0;
#X connect 5 0 6 1;
#X connect 7 0 2 0;
#X connect 7 1 10 0;
#X connect 9 0 3 0;
#X connect 10 0 8 0;
#X connect 11 0 1 0;
#X connect 12 0 13 0;
#X connect 12 1 11 0;
#X connect 13 0 2 0;
#X connect 14 0 1 0;
